<?xml version="1.0" standalone="no"?>
<!DOCTYPE svg PUBLIC "-//W3C//DTD SVG 20010904//EN"
 "http://www.w3.org/TR/2001/REC-SVG-20010904/DTD/svg10.dtd">
<svg version="1.0" xmlns="http://www.w3.org/2000/svg"
 width="512.000000pt" height="512.000000pt" viewBox="0 0 512.000000 512.000000"
 preserveAspectRatio="xMidYMid meet">
<metadata>
Created by potrace 1.11, written by Peter Selinger 2001-2013
</metadata>
<g transform="translate(0.000000,512.000000) scale(0.100000,-0.100000)"
fill="#000000" stroke="none">
<path d="M2310 4979 c-168 -21 -205 -28 -320 -56 -102 -25 -265 -74 -305 -93
-11 -5 -42 -18 -70 -29 -66 -25 -221 -104 -303 -153 -459 -279 -818 -701
-1013 -1189 -23 -59 -87 -252 -93 -284 -3 -11 -12 -54 -21 -95 -9 -41 -18 -93
-21 -115 -3 -22 -7 -46 -10 -54 -19 -56 -27 -481 -11 -611 11 -98 16 -132 23
-163 3 -16 7 -38 9 -50 19 -124 88 -345 156 -500 351 -797 1087 -1340 1957
-1444 37 -4 157 -8 267 -8 233 0 311 7 503 45 57 11 122 27 145 34 23 7 69 21
102 31 33 10 110 38 170 62 539 217 996 639 1259 1163 55 110 122 277 149 370
38 133 63 238 72 305 2 11 6 34 9 50 28 145 29 582 2 721 -3 12 -7 37 -10 55
-11 69 -25 136 -41 194 -9 33 -18 67 -20 75 -11 49 -74 220 -116 313 -187 422
-503 791 -899 1049 -283 185 -651 323 -970 364 -25 3 -56 8 -70 11 -42 9 -461
11 -530 2z"/>
</g>
</svg>
